<svg width="116" height="60" viewBox="0 0 116 60" fill="none" xmlns="http://www.w3.org/2000/svg">
<rect x="0.5" y="1.24307" width="15" height="15" rx="3.5" fill="#18181B" stroke="#27272A"/>
<rect x="20.5" y="1.24307" width="15" height="15" rx="3.5" fill="#4C1D95" stroke="#6D28D9"/>
<rect x="40.5" y="1.24307" width="15" height="15" rx="3.5" fill="#5B21B6" stroke="#7C3AED"/>
<rect x="60.5" y="1.24307" width="15" height="15" rx="3.5" fill="#6D28D9" stroke="#8B5CF6"/>
<rect x="80.5" y="1.24307" width="15" height="15" rx="3.5" fill="#7C3AED" stroke="#A78BFA"/>
<rect x="100.5" y="1.24307" width="15" height="15" rx="3.5" fill="#8B5CF6" stroke="#C4B5FD"/>
<path d="M10.6321 53.5734V27.4133H15.5526V38.2069H25.5412V27.4133H30.4503V53.5734H25.5412V42.767H15.5526V53.5734H10.6321Z" fill="white"/>
<path d="M39.3935 53.9438C38.2798 53.9438 37.2874 53.7267 36.4162 53.2924C35.545 52.8496 34.8556 52.1981 34.348 51.338C33.848 50.4694 33.598 49.388 33.598 48.0936C33.598 47.0036 33.776 46.0881 34.1321 45.3473C34.4882 44.6064 34.973 44.0103 35.5866 43.559C36.2003 43.1077 36.8972 42.767 37.6776 42.5371C38.4654 42.3072 39.2912 42.1454 40.1548 42.0517C41.17 41.9325 41.9882 41.8218 42.6094 41.7196C43.2306 41.6089 43.6813 41.4471 43.9616 41.2342C44.2419 41.0213 44.3821 40.7063 44.3821 40.289V40.2123C44.3821 39.4034 44.1548 38.7775 43.7003 38.3346C43.2533 37.8918 42.6169 37.6704 41.7912 37.6704C40.92 37.6704 40.2268 37.8876 39.7116 38.3219C39.1965 38.7477 38.8556 39.2841 38.6889 39.9313L34.2116 39.5226C34.4389 38.3304 34.8859 37.3 35.5526 36.4314C36.2192 35.5543 37.0791 34.8815 38.1321 34.4132C39.1927 33.9363 40.42 33.6979 41.8139 33.6979C42.7836 33.6979 43.7116 33.8256 44.598 34.0811C45.4919 34.3365 46.2836 34.7325 46.973 35.269C47.67 35.8055 48.2192 36.4953 48.6207 37.3383C49.0222 38.1728 49.223 39.1734 49.223 40.3401V53.5734H44.6321V50.8527H44.4957C44.2154 51.4658 43.8404 52.0065 43.3707 52.4749C42.901 52.9347 42.3366 53.2966 41.6776 53.5606C41.0185 53.8161 40.2571 53.9438 39.3935 53.9438ZM40.7798 50.1884C41.4919 50.1884 42.1207 50.0309 42.6662 49.7158C43.2116 49.3922 43.6397 48.9579 43.9503 48.4129C44.2609 47.8679 44.4162 47.2505 44.4162 46.5608V44.4787C44.2647 44.5894 44.0563 44.6916 43.7912 44.7852C43.5336 44.8704 43.2419 44.9513 42.9162 45.0279C42.5904 45.0961 42.2647 45.1599 41.9389 45.2195C41.6132 45.2706 41.3177 45.3175 41.0526 45.3601C40.4844 45.4537 39.9882 45.6027 39.5639 45.8071C39.1397 46.0115 38.8101 46.2883 38.5753 46.6374C38.3404 46.978 38.223 47.4038 38.223 47.9147C38.223 48.6556 38.4616 49.2219 38.9389 49.6136C39.4238 49.9968 40.0374 50.1884 40.7798 50.1884Z" fill="white"/>
<path d="M53.0696 53.5734V27.4133H57.9105V37.2489H58.0582C58.2704 36.7209 58.5772 36.1844 58.9787 35.6394C59.3878 35.0859 59.9181 34.6261 60.5696 34.2599C61.2287 33.8852 62.0469 33.6979 63.0241 33.6979C64.2969 33.6979 65.4711 34.0726 66.5469 34.8219C67.6226 35.5628 68.4825 36.6826 69.1264 38.1814C69.7704 39.6716 70.0923 41.5408 70.0923 43.7889C70.0923 45.9774 69.7779 47.8253 69.1491 49.3326C68.5279 50.8314 67.6794 51.9682 66.6037 52.7431C65.5355 53.5095 64.3385 53.8927 63.0128 53.8927C62.0734 53.8927 61.2741 53.7182 60.6151 53.369C59.9635 53.0199 59.4294 52.5813 59.0128 52.0534C58.5961 51.5169 58.2779 50.9761 58.0582 50.4311H57.8423V53.5734H53.0696ZM57.8082 43.7634C57.8082 44.93 57.9522 45.9476 58.2401 46.8162C58.5279 47.6848 58.9446 48.3618 59.4901 48.8472C60.0355 49.3241 60.6984 49.5625 61.4787 49.5625C62.2666 49.5625 62.9332 49.3198 63.4787 48.8344C64.0241 48.3405 64.437 47.6593 64.7173 46.7907C65.0052 45.9136 65.1491 44.9045 65.1491 43.7634C65.1491 42.6308 65.009 41.6345 64.7287 40.7744C64.4484 39.9143 64.0355 39.2416 63.4901 38.7562C62.9446 38.2708 62.2741 38.0281 61.4787 38.0281C60.6908 38.0281 60.0241 38.2623 59.4787 38.7306C58.9408 39.199 58.5279 39.8632 58.2401 40.7233C57.9522 41.5834 57.8082 42.5967 57.8082 43.7634Z" fill="white"/>
<path d="M74.777 59.2576V26.9279H83.7429V30.9899H79.4588V55.1829H83.7429V59.2576H74.777Z" fill="white"/>
<path d="M86.4162 53.5734V33.9533H91.2571V53.5734H86.4162ZM88.848 31.4242C88.1283 31.4242 87.5109 31.1559 86.9957 30.6195C86.4882 30.0745 86.2344 29.423 86.2344 28.6651C86.2344 27.9157 86.4882 27.2728 86.9957 26.7363C87.5109 26.1913 88.1283 25.9188 88.848 25.9188C89.5677 25.9188 90.1813 26.1913 90.6889 26.7363C91.2041 27.2728 91.4616 27.9157 91.4616 28.6651C91.4616 29.423 91.2041 30.0745 90.6889 30.6195C90.1813 31.1559 89.5677 31.4242 88.848 31.4242Z" fill="white"/>
<path d="M103.001 26.9279V59.2576H94.0355V55.1829H98.3196V30.9899H94.0355V26.9279H103.001Z" fill="white"/>
</svg>
